<?xml version="1.0" ?><!DOCTYPE svg  PUBLIC '-//W3C//DTD SVG 1.1//EN'  'http://www.w3.org/Graphics/SVG/1.1/DTD/svg11.dtd'><svg enable-background="new 0 0 800 800" height="800px" id="Layer_1" version="1.1" viewBox="0 0 800 800" width="800px" xml:space="preserve" xmlns="http://www.w3.org/2000/svg" xmlns:xlink="http://www.w3.org/1999/xlink"><g><path d="M243.627,244.861l200.477,35.354L386.046,607.34c-1.5,8.399,4.104,16.419,12.498,17.906   c0.913,0.159,1.826,0.241,2.723,0.241c7.344,0,13.859-5.262,15.188-12.752l58.074-327.158l209.148,36.876   c0.879,0.155,1.775,0.232,2.672,0.232c3.154,0,6.24-0.961,8.859-2.792c3.361-2.349,5.637-5.935,6.361-9.973   C724.427,180.236,637.53,56.118,507.849,33.218c-0.017-0.004-0.033-0.009-0.051-0.013c-0.328-0.061-0.689-0.077-1.018-0.138   c-13.48-2.311-27.166-3.525-40.716-3.525c-115.977,0-214.802,83.026-234.97,197.426c-0.707,4.034,0.207,8.184,2.551,11.541   C236.008,241.861,239.593,244.146,243.627,244.861z M673.265,289.249l-64.4-11.355c9.722-69.913,0.654-133.779-22.393-178.935   C645.907,141.239,680.97,213.187,673.265,289.249z M513.365,66.741c50.007,19.406,78.191,107.72,65.073,205.787l-98.515-17.367   L513.365,66.741z M482.544,63.553l-33.045,186.242l-47.594-8.391l-42.319-7.464C379.582,142.55,430.864,71.646,482.544,63.553z    M412.73,67.396c-37.803,34.812-68.779,92.559-83.552,161.184l-64.419-11.36C283.498,143.105,340.865,86.44,412.73,67.396z" fill="#4D4D4D"/><path d="M752.007,752.617c-0.051-12.653-0.24-74.024-0.12-119.61c0-5.93-3.378-11.342-8.705-13.932   c-5.327-2.595-11.688-1.893-16.324,1.783c-49.921,39.501-134.024,45.4-179.706,45.4c-53.109,0-99.083-7.627-121.096-15.19   c-87.241-29.973-160.278-52.903-239.538-52.903c-42.475,0-84.208,6.563-127.587,20.057c-6.438,2.004-10.843,7.964-10.852,14.717   l-0.258,122.045c-0.009,4.098,1.62,8.037,4.516,10.945c2.896,2.896,6.826,4.529,10.929,4.529h673.296c0.07,0,0.121,0,0.173,0   c8.533,0,15.445-6.916,15.445-15.445C752.18,754.198,752.128,753.397,752.007,752.617z M78.746,739.567l0.189-95.07   c36.492-10.383,71.796-15.441,107.582-15.441c74.64,0,142.195,21.232,229.505,51.23c29.822,10.244,81.295,16.863,131.129,16.863   c42.939,0,117.426-5.051,173.811-35.656c-0.018,29.584,0.052,60.233,0.104,78.074H78.746z" fill="#4D4D4D"/><path d="M63.757,455.504h202.279c7.946,0,14.617-6.05,15.376-13.971c0.345-3.728,0.552-7.494,0.552-11.309   c0-64.556-52.507-117.075-117.063-117.075c-64.557,0-117.08,52.52-117.08,117.075c0,3.801,0.206,7.555,0.551,11.266   C49.113,449.433,55.785,455.504,63.757,455.504z M164.901,344.039c45.628,0,83.104,35.657,86,80.575H78.893   C81.797,379.696,119.255,344.039,164.901,344.039z" fill="#4D4D4D"/><path d="M473.407,468.885c-8.532,0-15.444,6.913-15.444,15.445c0,8.528,6.912,15.445,15.444,15.445h161.262   c8.516,0,15.445-6.917,15.445-15.445c0-8.532-6.93-15.445-15.445-15.445H473.407z" fill="#4D4D4D"/><path d="M63.266,499.775c0.052,0,0.121,0,0.173,0c101.256-1.15,205.959-1.193,311.213-0.129   c0.053,0,0.104,0,0.156,0c8.445,0,15.358-6.81,15.444-15.29c0.087-8.528-6.774-15.515-15.29-15.601   c-105.479-1.064-210.406-1.021-311.868,0.129c-8.533,0.1-15.368,7.09-15.272,15.622C47.924,492.976,54.819,499.775,63.266,499.775z   " fill="#4D4D4D"/><path d="M63.266,550.593h300.612c8.533,0,15.445-6.917,15.445-15.445s-6.912-15.445-15.445-15.445H63.266   c-8.532,0-15.444,6.917-15.444,15.445S54.733,550.593,63.266,550.593z" fill="#4D4D4D"/></g></svg>